<?xml version="1.0" encoding="utf-8"?>
<!-- Generator: Adobe Illustrator 26.5.0, SVG Export Plug-In . SVG Version: 6.00 Build 0)  -->
<svg version="1.1" id="Layer_1" xmlns="http://www.w3.org/2000/svg" xmlns:xlink="http://www.w3.org/1999/xlink" x="0px" y="0px"
	 viewBox="0 0 512 512" style="enable-background:new 0 0 512 512;" xml:space="preserve">
<style type="text/css">
	.st0{fill:#3E4349;}
	.st1{fill:#FFFFFF;}
</style>
<g id="XMLID_17_">
	<path id="XMLID_19_" class="st0" d="M512,256c0,141.4-114.6,256-256,256S0,397.4,0,256S114.6,0,256,0S512,114.6,512,256"/>
	<path id="XMLID_20_" class="st1" d="M173.94,163.56v-40.4c86.55-14.73,83.88,17.81,111.8,88.23
		c9.68,24.41,34.65,95.11,49.94,129.19c3.51,12.06,10.66,11.5,22.44,8.42v35.21c-28.9,12.91-61.72,12.91-70.14-18.66l-32.12-98.75
		l-43.48,120.5h-58.49l76.87-177.59c-3.93-12.62-10.38-26.51-17.81-41.1C206.2,156.41,187.27,157.67,173.94,163.56"/>
</g>
</svg>
